<svg width="60" height="60" viewBox="0 0 60 60" fill="none" xmlns="http://www.w3.org/2000/svg">
<g id="&#230;&#160;&#135;&#232;&#174;&#176;">
<g id="Union" filter="url(#filter0_i_4847_2294)">
<path d="M43.9951 23.6387C43.8035 16.0737 37.6112 10 30 10C22.268 10 16 16.268 16 24C16 35.5251 27.0024 37.6187 29.499 47.0037C30 48.5 30.5 47.0037 30.5 47.0037C32.9967 37.6187 44 35.5251 44 24C44 23.8792 43.9982 23.7587 43.9951 23.6387Z" fill="url(#paint0_linear_4847_2294)"/>
</g>
<path id="&#232;&#181;&#183;" d="M24.84 20H29.76V21.248H24.84V20ZM31.068 22.376H34.344V23.624H31.068V22.376ZM24.504 22.364H30.06V23.636H24.504V22.364ZM27.636 24.932H29.952V26.168H27.636V24.932ZM26.628 18.836H27.972V23.048H26.628V18.836ZM26.928 23.18H28.248V28.52H26.928V23.18ZM30.408 19.268H34.956V23.924H33.576V20.528H30.408V19.268ZM30.504 22.376H31.896V26.084C31.896 26.292 31.928 26.424 31.992 26.48C32.056 26.536 32.208 26.564 32.448 26.564C32.504 26.564 32.592 26.564 32.712 26.564C32.832 26.564 32.964 26.564 33.108 26.564C33.26 26.564 33.4 26.564 33.528 26.564C33.664 26.564 33.764 26.564 33.828 26.564C33.972 26.564 34.08 26.528 34.152 26.456C34.232 26.384 34.284 26.236 34.308 26.012C34.34 25.788 34.364 25.456 34.38 25.016C34.484 25.088 34.608 25.16 34.752 25.232C34.904 25.296 35.06 25.356 35.22 25.412C35.38 25.468 35.52 25.516 35.64 25.556C35.592 26.156 35.508 26.624 35.388 26.96C35.276 27.288 35.104 27.52 34.872 27.656C34.648 27.784 34.34 27.848 33.948 27.848C33.892 27.848 33.804 27.848 33.684 27.848C33.572 27.848 33.444 27.848 33.3 27.848C33.164 27.848 33.024 27.848 32.88 27.848C32.736 27.848 32.608 27.848 32.496 27.848C32.384 27.848 32.3 27.848 32.244 27.848C31.804 27.848 31.456 27.8 31.2 27.704C30.952 27.6 30.772 27.42 30.66 27.164C30.556 26.908 30.504 26.548 30.504 26.084V22.376ZM26.028 25.496C26.196 26.128 26.404 26.636 26.652 27.02C26.908 27.404 27.22 27.696 27.588 27.896C27.956 28.088 28.384 28.22 28.872 28.292C29.368 28.356 29.932 28.388 30.564 28.388C30.716 28.388 30.924 28.392 31.188 28.4C31.452 28.4 31.748 28.4 32.076 28.4C32.404 28.392 32.744 28.388 33.096 28.388C33.456 28.388 33.804 28.388 34.14 28.388C34.484 28.388 34.796 28.384 35.076 28.376C35.356 28.36 35.588 28.352 35.772 28.352C35.7 28.456 35.624 28.592 35.544 28.76C35.472 28.928 35.408 29.1 35.352 29.276C35.296 29.46 35.252 29.624 35.22 29.768H34.368H30.564C29.772 29.768 29.072 29.716 28.464 29.612C27.864 29.516 27.34 29.328 26.892 29.048C26.452 28.768 26.08 28.368 25.776 27.848C25.472 27.328 25.212 26.648 24.996 25.808L26.028 25.496ZM24.924 24.332L26.244 24.428C26.22 25.188 26.18 25.924 26.124 26.636C26.076 27.348 25.992 28.012 25.872 28.628C25.752 29.236 25.588 29.772 25.38 30.236C25.3 30.172 25.184 30.1 25.032 30.02C24.888 29.948 24.736 29.872 24.576 29.792C24.416 29.72 24.284 29.664 24.18 29.624C24.38 29.216 24.528 28.732 24.624 28.172C24.728 27.612 24.8 27.004 24.84 26.348C24.888 25.692 24.916 25.02 24.924 24.332Z" fill="white"/>
<g id="Ellipse 9" filter="url(#filter1_f_4847_2294)">
<ellipse cx="30" cy="52" rx="10" ry="2" fill="black" fill-opacity="0.2"/>
</g>
</g>
<defs id="test">
<filter id="filter0_i_4847_2294" x="16" y="8" width="28" height="39.6689" filterUnits="userSpaceOnUse" color-interpolation-filters="sRGB">
<feFlood flood-opacity="0" result="BackgroundImageFix"/>
<feBlend mode="normal" in="SourceGraphic" in2="BackgroundImageFix" result="shape"/>
<feColorMatrix in="SourceAlpha" type="matrix" values="0 0 0 0 0 0 0 0 0 0 0 0 0 0 0 0 0 0 127 0" result="hardAlpha"/>
<feOffset dy="-2"/>
<feGaussianBlur stdDeviation="2"/>
<feComposite in2="hardAlpha" operator="arithmetic" k2="-1" k3="1"/>
<feColorMatrix type="matrix" values="0 0 0 0 0 0 0 0 0 0 0 0 0 0 0 0 0 0 0.25 0"/>
<feBlend mode="normal" in2="shape" result="effect1_innerShadow_4847_2294"/>
</filter>
<filter id="filter1_f_4847_2294" x="17" y="47" width="26" height="10" filterUnits="userSpaceOnUse" color-interpolation-filters="sRGB">
<feFlood flood-opacity="0" result="BackgroundImageFix"/>
<feBlend mode="normal" in="SourceGraphic" in2="BackgroundImageFix" result="shape"/>
<feGaussianBlur stdDeviation="1.5" result="effect1_foregroundBlur_4847_2294"/>
</filter>
<linearGradient id="paint0_linear_4847_2294" x1="30" y1="10" x2="30" y2="47.6687" gradientUnits="userSpaceOnUse">
<stop stop-color="#42B300"/>
<stop offset="1" stop-color="#004B15"/>
</linearGradient>
</defs>
</svg>
